solid tablet stand 3
facet normal -1.9347730176508294e-16 -1.4100123998655465e-16 -1.0
  outer loop
    vertex 7.139740913135758 11.382229417634363 2.255973186038318e-14
    vertex 7.139740913135756 6.701750900136208 2.255973186038318e-14
    vertex 6.8316425697693655 9.041990158885286 2.255973186038318e-14
  endloop
endfacet
facet normal -1.9347730176508294e-16 -1.4100123998655465e-16 -1.0
  outer loop
    vertex 7.139740913135756 6.701750900136208 2.255973186038318e-14
    vertex 7.139740913135758 11.382229417634363 2.255973186038318e-14
    vertex 8.0430395502911 4.520995079442645 2.255973186038318e-14
  endloop
endfacet
facet normal -1.9347730176508294e-16 -1.4100123998655465e-16 -1.0
  outer loop
    vertex 8.0430395502911 4.520995079442645 2.255973186038318e-14
    vertex 7.139740913135758 11.382229417634363 2.255973186038318e-14
    vertex 8.043039550291102 13.562985238327924 2.255973186038318e-14
  endloop
endfacet
facet normal -1.9347730176508294e-16 -1.4100123998655465e-16 -1.0
  outer loop
    vertex 8.0430395502911 4.520995079442645 2.255973186038318e-14
    vertex 8.043039550291102 13.562985238327924 2.255973186038318e-14
    vertex 9.479980171884836 2.648337602115472 2.255973186038318e-14
  endloop
endfacet
facet normal -1.9347730176508294e-16 -1.4100123998655465e-16 -1.0
  outer loop
    vertex 9.479980171884836 2.648337602115472 2.255973186038318e-14
    vertex 8.043039550291102 13.562985238327924 2.255973186038318e-14
    vertex 9.479980171884836 15.435642715655092 2.255973186038318e-14
  endloop
endfacet
facet normal -1.9347730176508294e-16 -1.4100123998655465e-16 -1.0
  outer loop
    vertex 9.479980171884836 2.648337602115472 2.255973186038318e-14
    vertex 9.479980171884836 15.435642715655092 2.255973186038318e-14
    vertex 11.352637649212006 16.87258333724883 2.255973186038318e-14
  endloop
endfacet
facet normal -1.9347730176508294e-16 -1.4100123998655465e-16 -1.0
  outer loop
    vertex 9.479980171884836 2.648337602115472 2.255973186038318e-14
    vertex 11.352637649212006 16.87258333724883 2.255973186038318e-14
    vertex 11.352637649212006 1.211396980521736 2.255973186038318e-14
  endloop
endfacet
facet normal -1.9347730176508294e-16 -1.4100123998655465e-16 -1.0
  outer loop
    vertex 11.352637649212006 1.211396980521736 2.255973186038318e-14
    vertex 11.352637649212006 16.87258333724883 2.255973186038318e-14
    vertex 13.533393469905569 17.77588197440417 2.255973186038318e-14
  endloop
endfacet
facet normal -1.9347730176508294e-16 -1.4100123998655465e-16 -1.0
  outer loop
    vertex 11.352637649212006 1.211396980521736 2.255973186038318e-14
    vertex 13.533393469905569 17.77588197440417 2.255973186038318e-14
    vertex 13.533393469905569 0.3080983433663939 2.255973186038318e-14
  endloop
endfacet
facet normal -1.9347730176508294e-16 -1.4100123998655465e-16 -1.0
  outer loop
    vertex 13.533393469905569 0.3080983433663939 2.255973186038318e-14
    vertex 13.533393469905569 17.77588197440417 2.255973186038318e-14
    vertex 14.447685836285476 11.845453687015253 -2.5046333740767125e-29
  endloop
endfacet
facet normal -1.9347730176508294e-16 -1.4100123998655465e-16 -1.0
  outer loop
    vertex 14.447685836285476 11.845453687015253 -2.5046333740767125e-29
    vertex 13.533393469905569 17.77588197440417 2.255973186038318e-14
    vertex 15.873632728654647 18.083980317770564 2.255973186038318e-14
  endloop
endfacet
facet normal -1.9347730176508294e-16 -1.4100123998655465e-16 -1.0
  outer loop
    vertex 29.3653061912617 6.4158839117202575 -2.5046333740767125e-29
    vertex 49.24512661853279 23.275496446485146 -1.5748790410655057e-29
    vertex 49.17971484627217 21.89262372424455 -1.5792597066560245e-29
  endloop
endfacet
facet normal -1.9347730176508294e-16 -1.4100123998655465e-16 -1.0
  outer loop
    vertex 49.24512661853279 23.275496446485146 -1.5748790410655057e-29
    vertex 29.3653061912617 6.4158839117202575 -2.5046333740767125e-29
    vertex 55.427241112677564 78.02046161560655 -2.5046333740767125e-29
  endloop
endfacet
facet normal -1.9347730176508294e-16 -1.4100123998655465e-16 -1.0
  outer loop
    vertex 49.24512661853279 23.275496446485146 -1.5748790410655057e-29
    vertex 55.427241112677564 78.02046161560655 -2.5046333740767125e-29
    vertex 49.511250926748914 24.634096283981037 -1.557056536652111e-29
  endloop
endfacet
facet normal -1.9347730176508294e-16 -1.4100123998655465e-16 -1.0
  outer loop
    vertex 49.511250926748914 24.634096283981037 -1.557056536652111e-29
    vertex 55.427241112677564 78.02046161560655 -2.5046333740767125e-29
    vertex 63.01768157642262 61.74270951138951 -2.5046333740767125e-29
  endloop
endfacet
facet normal -1.9347730176508294e-16 -1.4100123998655465e-16 -1.0
  outer loop
    vertex 63.01768157642262 61.74270951138951 -2.5046333740767125e-29
    vertex 55.427241112677564 78.02046161560655 -2.5046333740767125e-29
    vertex 58.368006034099864 76.4895962940957 -2.5046333740767125e-29
  endloop
endfacet
facet normal -1.9347730176508294e-16 -1.4100123998655465e-16 -1.0
  outer loop
    vertex 63.01768157642262 61.74270951138951 -2.5046333740767125e-29
    vertex 58.368006034099864 76.4895962940957 -2.5046333740767125e-29
    vertex 60.812349720052595 74.24976797464456 -2.5046333740767125e-29
  endloop
endfacet
facet normal -1.9347730176508294e-16 -1.4100123998655465e-16 -1.0
  outer loop
    vertex 63.01768157642262 61.74270951138951 -2.5046333740767125e-29
    vertex 60.812349720052595 74.24976797464456 -2.5046333740767125e-29
    vertex 62.59369418780703 71.4536172557324 -2.5046333740767125e-29
  endloop
endfacet
facet normal -1.9347730176508294e-16 -1.4100123998655465e-16 -1.0
  outer loop
    vertex 63.01768157642262 61.74270951138951 -2.5046333740767125e-29
    vertex 62.59369418780703 71.4536172557324 -2.5046333740767125e-29
    vertex 63.59064375569662 68.29169718799552 -2.5046333740767125e-29
  endloop
endfacet
facet normal -1.9347730176508294e-16 -1.4100123998655465e-16 -1.0
  outer loop
    vertex 63.01768157642262 61.74270951138951 -2.5046333740767125e-29
    vertex 63.59064375569662 68.29169718799552 -2.5046333740767125e-29
    vertex 63.73525795820675 64.97948739873024 -2.5046333740767125e-29
  endloop
endfacet
facet normal -1.9347730176508294e-16 -1.4100123998655465e-16 -1.0
  outer loop
    vertex 14.447685836285476 11.845453687015253 -2.5046333740767125e-29
    vertex 15.87363272865465 1.4099832412739487e-15 2.255973186038318e-14
    vertex 13.533393469905569 0.3080983433663939 2.255973186038318e-14
  endloop
endfacet
facet normal -1.9347730176508294e-16 -1.4100123998655465e-16 -1.0
  outer loop
    vertex 15.87363272865465 1.4099832412739487e-15 2.255973186038318e-14
    vertex 14.447685836285476 11.845453687015253 -2.5046333740767125e-29
    vertex 29.3653061912617 6.4158839117202575 -2.5046333740767125e-29
  endloop
endfacet
facet normal -1.9347730176508294e-16 -1.4100123998655465e-16 -1.0
  outer loop
    vertex 15.87363272865465 1.4099832412739487e-15 2.255973186038318e-14
    vertex 29.3653061912617 6.4158839117202575 -2.5046333740767125e-29
    vertex 105.56530619126171 1.2924690507449743e-15 2.8199664825478975e-15
  endloop
endfacet
facet normal -1.9347730176508294e-16 -1.4100123998655465e-16 -1.0
  outer loop
    vertex 105.56530619126171 1.2924690507449743e-15 2.8199664825478975e-15
    vertex 29.3653061912617 6.4158839117202575 -2.5046333740767125e-29
    vertex 56.50007057626128 12.905883580421508 -1.0890110962232114e-29
  endloop
endfacet
facet normal -1.9347730176508294e-16 -1.4100123998655465e-16 -1.0
  outer loop
    vertex 56.50007057626128 12.905883580421508 -1.0890110962232114e-29
    vertex 29.3653061912617 6.4158839117202575 -2.5046333740767125e-29
    vertex 55.178539804689144 13.318402774708673 -1.1775148040079706e-29
  endloop
endfacet
facet normal -1.9347730176508294e-16 -1.4100123998655465e-16 -1.0
  outer loop
    vertex 55.178539804689144 13.318402774708673 -1.1775148040079706e-29
    vertex 29.3653061912617 6.4158839117202575 -2.5046333740767125e-29
    vertex 53.93118266054131 13.91899899581794 -1.2610510595107927e-29
  endloop
endfacet
facet normal -1.9347730176508294e-16 -1.4100123998655465e-16 -1.0
  outer loop
    vertex 53.93118266054131 13.91899899581794 -1.2610510595107927e-29
    vertex 29.3653061912617 6.4158839117202575 -2.5046333740767125e-29
    vertex 52.784600900111656 14.69486363125213 -1.337838327169858e-29
  endloop
endfacet
facet normal -1.9347730176508294e-16 -1.4100123998655465e-16 -1.0
  outer loop
    vertex 52.784600900111656 14.69486363125213 -1.337838327169858e-29
    vertex 29.3653061912617 6.4158839117202575 -2.5046333740767125e-29
    vertex 51.76324709394509 15.629450207496655 -1.406239003680993e-29
  endloop
endfacet
facet normal -1.9347730176508294e-16 -1.4100123998655465e-16 -1.0
  outer loop
    vertex 51.76324709394509 15.629450207496655 -1.406239003680993e-29
    vertex 29.3653061912617 6.4158839117202575 -2.5046333740767125e-29
    vertex 50.88890313920632 16.702827268309466 -1.4647943423368717e-29
  endloop
endfacet
facet normal -1.9347730176508294e-16 -1.4100123998655465e-16 -1.0
  outer loop
    vertex 50.88890313920632 16.702827268309466 -1.4647943423368717e-29
    vertex 29.3653061912617 6.4158839117202575 -2.5046333740767125e-29
    vertex 50.180215728151936 17.89210344282925 -1.512255562981836e-29
  endloop
endfacet
facet normal -1.9347730176508294e-16 -1.4100123998655465e-16 -1.0
  outer loop
    vertex 50.180215728151936 17.89210344282925 -1.512255562981836e-29
    vertex 29.3653061912617 6.4158839117202575 -2.5046333740767125e-29
    vertex 49.65229867953534 19.17191563828893 -1.547610484116039e-29
  endloop
endfacet
facet normal -1.9347730176508294e-16 -1.4100123998655465e-16 -1.0
  outer loop
    vertex 49.65229867953534 19.17191563828893 -1.547610484116039e-29
    vertex 29.3653061912617 6.4158839117202575 -2.5046333740767125e-29
    vertex 49.31641061382187 20.514969945894787 -1.5701051091794631e-29
  endloop
endfacet
facet normal -1.9347730176508294e-16 -1.4100123998655465e-16 -1.0
  outer loop
    vertex 49.31641061382187 20.514969945894787 -1.5701051091794631e-29
    vertex 29.3653061912617 6.4158839117202575 -2.5046333740767125e-29
    vertex 49.17971484627217 21.89262372424455 -1.5792597066560245e-29
  endloop
endfacet
facet normal -1.9347730176508294e-16 -1.4100123998655465e-16 -1.0
  outer loop
    vertex 105.56530619126171 1.2924690507449743e-15 2.8199664825478975e-15
    vertex 56.50007057626128 12.905883580421508 -1.0890110962232114e-29
    vertex 57.86759135544589 12.690239001621768 -9.974274100661663e-30
  endloop
endfacet
facet normal -1.9347730176508294e-16 -1.4100123998655465e-16 -1.0
  outer loop
    vertex 105.56530619126171 1.2924690507449743e-15 2.8199664825478975e-15
    vertex 57.86759135544589 12.690239001621768 -9.974274100661663e-30
    vertex 93.14539896866668 12.663125086298445 2.8199664825478975e-15
  endloop
endfacet
facet normal -1.9347730176508294e-16 -1.4100123998655465e-16 -1.0
  outer loop
    vertex 105.56530619126171 1.2924690507449743e-15 2.8199664825478975e-15
    vertex 93.14539896866668 12.663125086298445 2.8199664825478975e-15
    vertex 96.15230806406372 12.267257993871167 2.8199664825478975e-15
  endloop
endfacet
facet normal -1.9347730176508294e-16 -1.4100123998655465e-16 -1.0
  outer loop
    vertex 105.56530619126171 1.2924690507449743e-15 2.8199664825478975e-15
    vertex 96.15230806406372 12.267257993871167 2.8199664825478975e-15
    vertex 99.2153061912617 10.998522628062371 2.8199664825478975e-15
  endloop
endfacet
facet normal -1.9347730176508294e-16 -1.4100123998655465e-16 -1.0
  outer loop
    vertex 105.56530619126171 1.2924690507449743e-15 2.8199664825478975e-15
    vertex 99.2153061912617 10.998522628062371 2.8199664825478975e-15
    vertex 101.84556231233087 8.980256121069154 2.8199664825478975e-15
  endloop
endfacet
facet normal -1.9347730176508294e-16 -1.4100123998655465e-16 -1.0
  outer loop
    vertex 105.56530619126171 1.2924690507449743e-15 2.8199664825478975e-15
    vertex 101.84556231233087 8.980256121069154 2.8199664825478975e-15
    vertex 103.86382881932408 6.350000000000001 2.8199664825478975e-15
  endloop
endfacet
facet normal -1.9347730176508294e-16 -1.4100123998655465e-16 -1.0
  outer loop
    vertex 105.56530619126171 1.2924690507449743e-15 2.8199664825478975e-15
    vertex 103.86382881932408 6.350000000000001 2.8199664825478975e-15
    vertex 105.13256418513286 3.287001872802017 2.8199664825478975e-15
  endloop
endfacet
facet normal 0.9396926207859089 -0.34202014332566744 2.685777874317379e-31
  outer loop
    vertex 63.01768157642262 61.74270951138951 -2.5046333740767125e-29
    vertex 49.511250926748914 24.634096283981037 12.7
    vertex 49.511250926748914 24.634096283981037 -1.557056536652111e-29
  endloop
endfacet
facet normal 0.9396926207859089 -0.34202014332566744 2.685777874317379e-31
  outer loop
    vertex 49.511250926748914 24.634096283981037 12.7
    vertex 63.01768157642262 61.74270951138951 -2.5046333740767125e-29
    vertex 63.01768157642262 61.74270951138951 12.7
  endloop
endfacet
facet normal 0.9813502591514469 -0.1922281687562673 2.4405169006745037e-31
  outer loop
    vertex 49.511250926748914 24.634096283981037 -1.557056536652111e-29
    vertex 49.24512661853279 23.275496446485146 12.7
    vertex 49.24512661853279 23.275496446485146 -1.5748790410655057e-29
  endloop
endfacet
facet normal 0.9813502591514469 -0.1922281687562673 2.4405169006745037e-31
  outer loop
    vertex 49.24512661853279 23.275496446485146 12.7
    vertex 49.511250926748914 24.634096283981037 -1.557056536652111e-29
    vertex 49.511250926748914 24.634096283981037 12.7
  endloop
endfacet
facet normal 0.9988831640415784 -0.04724854065773344 2.1563260748050655e-31
  outer loop
    vertex 49.24512661853279 23.275496446485146 -1.5748790410655057e-29
    vertex 49.17971484627217 21.89262372424455 12.7
    vertex 49.17971484627217 21.89262372424455 -1.5792597066560245e-29
  endloop
endfacet
facet normal 0.9988831640415784 -0.04724854065773344 2.1563260748050655e-31
  outer loop
    vertex 49.17971484627217 21.89262372424455 12.7
    vertex 49.24512661853279 23.275496446485146 -1.5748790410655057e-29
    vertex 49.24512661853279 23.275496446485146 12.7
  endloop
endfacet
facet normal 0.9951133918110725 0.0987387332218867 1.826148370998366e-31
  outer loop
    vertex 49.17971484627217 21.89262372424455 -1.5792597066560245e-29
    vertex 49.31641061382187 20.514969945894787 12.7
    vertex 49.31641061382187 20.514969945894787 -1.5701051091794631e-29
  endloop
endfacet
facet normal 0.9951133918110725 0.0987387332218867 1.826148370998366e-31
  outer loop
    vertex 49.31641061382187 20.514969945894787 12.7
    vertex 49.17971484627217 21.89262372424455 -1.5792597066560245e-29
    vertex 49.17971484627217 21.89262372424455 12.7
  endloop
endfacet
facet normal 0.9701213384897511 0.24262025596980555 1.4570253225085362e-31
  outer loop
    vertex 49.31641061382187 20.514969945894787 -1.5701051091794631e-29
    vertex 49.65229867953534 19.17191563828893 12.7
    vertex 49.65229867953534 19.17191563828893 -1.547610484116039e-29
  endloop
endfacet
facet normal 0.9701213384897511 0.24262025596980555 1.4570253225085362e-31
  outer loop
    vertex 49.65229867953534 19.17191563828893 12.7
    vertex 49.31641061382187 20.514969945894787 -1.5701051091794631e-29
    vertex 49.31641061382187 20.514969945894787 12.7
  endloop
endfacet
facet normal 0.9244399969857462 0.3813275389648559 1.0568290303007956e-31
  outer loop
    vertex 49.65229867953534 19.17191563828893 -1.547610484116039e-29
    vertex 50.180215728151936 17.89210344282925 12.7
    vertex 50.180215728151936 17.89210344282925 -1.512255562981836e-29
  endloop
endfacet
facet normal 0.9244399969857462 0.3813275389648559 1.0568290303007956e-31
  outer loop
    vertex 50.180215728151936 17.89210344282925 12.7
    vertex 49.65229867953534 19.17191563828893 -1.547610484116039e-29
    vertex 49.65229867953534 19.17191563828893 12.7
  endloop
endfacet
facet normal 0.8590435902147381 0.5119024419857492 6.340942787269704e-32
  outer loop
    vertex 50.180215728151936 17.89210344282925 -1.512255562981836e-29
    vertex 50.88890313920632 16.702827268309466 12.7
    vertex 50.88890313920632 16.702827268309466 -1.4647943423368717e-29
  endloop
endfacet
facet normal 0.8590435902147381 0.5119024419857492 6.340942787269704e-32
  outer loop
    vertex 50.88890313920632 16.702827268309466 12.7
    vertex 50.180215728151936 17.89210344282925 -1.512255562981836e-29
    vertex 50.180215728151936 17.89210344282925 12.7
  endloop
endfacet
facet normal 0.77532679433951 0.6315602599746276 1.9783651848704407e-32
  outer loop
    vertex 50.88890313920632 16.702827268309466 -1.4647943423368717e-29
    vertex 51.76324709394509 15.629450207496655 12.7
    vertex 51.76324709394509 15.629450207496655 -1.406239003680993e-29
  endloop
endfacet
facet normal 0.77532679433951 0.6315602599746276 1.9783651848704407e-32
  outer loop
    vertex 51.76324709394509 15.629450207496655 12.7
    vertex 50.88890313920632 16.702827268309466 -1.4647943423368717e-29
    vertex 50.88890313920632 16.702827268309466 12.7
  endloop
endfacet
facet normal 0.6750749952152837 0.7377491110364586 -2.4264040133803987e-32
  outer loop
    vertex 51.76324709394509 15.629450207496655 12.7
    vertex 52.784600900111656 14.69486363125213 -1.337838327169858e-29
    vertex 51.76324709394509 15.629450207496655 -1.406239003680993e-29
  endloop
endfacet
facet normal 0.6750749952152837 0.7377491110364586 -2.4264040133803987e-32
  outer loop
    vertex 52.784600900111656 14.69486363125213 -1.337838327169858e-29
    vertex 51.76324709394509 15.629450207496655 12.7
    vertex 52.784600900111656 14.69486363125213 12.7
  endloop
endfacet
facet normal 0.5604262123666592 0.8282043591362944 -6.779426517801373e-32
  outer loop
    vertex 52.784600900111656 14.69486363125213 12.7
    vertex 53.93118266054131 13.91899899581794 -1.2610510595107927e-29
    vertex 52.784600900111656 14.69486363125213 -1.337838327169858e-29
  endloop
endfacet
facet normal 0.5604262123666592 0.8282043591362944 -6.779426517801373e-32
  outer loop
    vertex 53.93118266054131 13.91899899581794 -1.2610510595107927e-29
    vertex 52.784600900111656 14.69486363125213 12.7
    vertex 53.93118266054131 13.91899899581794 12.7
  endloop
endfacet
facet normal 0.43382550252420554 0.9009969108490997 -1.0987867614335361e-31
  outer loop
    vertex 53.93118266054131 13.91899899581794 12.7
    vertex 55.178539804689144 13.318402774708673 -1.1775148040079706e-29
    vertex 53.93118266054131 13.91899899581794 -1.2610510595107927e-29
  endloop
endfacet
facet normal 0.43382550252420554 0.9009969108490997 -1.0987867614335361e-31
  outer loop
    vertex 55.178539804689144 13.318402774708673 -1.1775148040079706e-29
    vertex 53.93118266054131 13.91899899581794 12.7
    vertex 55.178539804689144 13.318402774708673 12.7
  endloop
endfacet
facet normal 0.2979728151335669 0.954574356161623 -1.4961976003643238e-31
  outer loop
    vertex 55.178539804689144 13.318402774708673 12.7
    vertex 56.50007057626128 12.905883580421508 -1.0890110962232114e-29
    vertex 55.178539804689144 13.318402774708673 -1.1775148040079706e-29
  endloop
endfacet
facet normal 0.2979728151335669 0.954574356161623 -1.4961976003643238e-31
  outer loop
    vertex 56.50007057626128 12.905883580421508 -1.0890110962232114e-29
    vertex 55.178539804689144 13.318402774708673 12.7
    vertex 56.50007057626128 12.905883580421508 12.7
  endloop
endfacet
facet normal 0.1557654118962507 0.9877940759372833 -1.861699788176916e-31
  outer loop
    vertex 56.50007057626128 12.905883580421508 12.7
    vertex 57.86759135544589 12.690239001621768 -9.974274100661663e-30
    vertex 56.50007057626128 12.905883580421508 -1.0890110962232114e-29
  endloop
endfacet
facet normal 0.1557654118962507 0.9877940759372833 -1.861699788176916e-31
  outer loop
    vertex 57.86759135544589 12.690239001621768 -9.974274100661663e-30
    vertex 56.50007057626128 12.905883580421508 12.7
    vertex 57.86759135544589 12.690239001621768 12.7
  endloop
endfacet
facet normal 0.0007685825494667919 0.9999997046403888 4.455662407221821e-19
  outer loop
    vertex 57.86759135544589 12.690239001621768 12.7
    vertex 93.14539896866668 12.663125086298445 2.8199664825478975e-15
    vertex 57.86759135544589 12.690239001621768 -9.974274100661663e-30
  endloop
endfacet
facet normal 0.0007685825494667919 0.9999997046403888 4.455662407221821e-19
  outer loop
    vertex 93.14539896866668 12.663125086298445 2.8199664825478975e-15
    vertex 57.86759135544589 12.690239001621768 12.7
    vertex 93.14539896866668 12.663125086298445 12.7
  endloop
endfacet
facet normal 0.0007685825494667919 0.9999997046403888 4.455662407221821e-19
  outer loop
    vertex 93.14539896866668 12.663125086298445 12.7
    vertex 57.86759135544589 12.690239001621768 12.7
    vertex 92.58846477661464 12.663553136326087 12.7
  endloop
endfacet
facet normal 0.9748585762185059 -0.2228244967978778 8.695713586404455e-19
  outer loop
    vertex 15.873632728654647 18.083980317770564 2.255973186038318e-14
    vertex 14.447685836285476 11.845453687015253 12.7
    vertex 14.447685836285476 11.845453687015253 -2.5046333740767125e-29
  endloop
endfacet
facet normal 0.9748585762185059 -0.2228244967978778 8.695713586404455e-19
  outer loop
    vertex 14.447685836285476 11.845453687015253 12.7
    vertex 15.873632728654647 18.083980317770564 2.255973186038318e-14
    vertex 15.873632728654647 18.083980317770564 12.7
  endloop
endfacet
facet normal 0.3420201433256704 0.9396926207859078 -1.3728442822069969e-31
  outer loop
    vertex 14.447685836285476 11.845453687015253 12.7
    vertex 29.3653061912617 6.4158839117202575 -2.5046333740767125e-29
    vertex 14.447685836285476 11.845453687015253 -2.5046333740767125e-29
  endloop
endfacet
facet normal 0.3420201433256704 0.9396926207859078 -1.3728442822069969e-31
  outer loop
    vertex 29.3653061912617 6.4158839117202575 -2.5046333740767125e-29
    vertex 14.447685836285476 11.845453687015253 12.7
    vertex 29.3653061912617 6.4158839117202575 12.7
  endloop
endfacet
facet normal -0.939692620785909 0.34202014332566744 -2.685777874317379e-31
  outer loop
    vertex 55.427241112677564 78.02046161560655 12.7
    vertex 29.3653061912617 6.4158839117202575 -2.5046333740767125e-29
    vertex 29.3653061912617 6.4158839117202575 12.7
  endloop
endfacet
facet normal -0.939692620785909 0.34202014332566744 -2.685777874317379e-31
  outer loop
    vertex 29.3653061912617 6.4158839117202575 -2.5046333740767125e-29
    vertex 55.427241112677564 78.02046161560655 12.7
    vertex 55.427241112677564 78.02046161560655 -2.5046333740767125e-29
  endloop
endfacet
facet normal 0.46174861323503463 0.8870108331782213 -1.0105350499770345e-31
  outer loop
    vertex 55.427241112677564 78.02046161560655 12.7
    vertex 58.368006034099864 76.4895962940957 -2.5046333740767125e-29
    vertex 55.427241112677564 78.02046161560655 -2.5046333740767125e-29
  endloop
endfacet
facet normal 0.46174861323503463 0.8870108331782213 -1.0105350499770345e-31
  outer loop
    vertex 58.368006034099864 76.4895962940957 -2.5046333740767125e-29
    vertex 55.427241112677564 78.02046161560655 12.7
    vertex 58.368006034099864 76.4895962940957 12.7
  endloop
endfacet
facet normal 0.6755902076156599 0.7372773368101244 -2.4054003814220924e-32
  outer loop
    vertex 58.368006034099864 76.4895962940957 12.7
    vertex 60.812349720052595 74.24976797464456 -2.5046333740767125e-29
    vertex 58.368006034099864 76.4895962940957 -2.5046333740767125e-29
  endloop
endfacet
facet normal 0.6755902076156599 0.7372773368101244 -2.4054003814220924e-32
  outer loop
    vertex 60.812349720052595 74.24976797464456 -2.5046333740767125e-29
    vertex 58.368006034099864 76.4895962940957 12.7
    vertex 60.812349720052595 74.24976797464456 12.7
  endloop
endfacet
facet normal 0.8433914458128849 0.5372996083468251 5.458473797808009e-32
  outer loop
    vertex 60.812349720052595 74.24976797464456 -2.5046333740767125e-29
    vertex 62.59369418780703 71.4536172557324 12.7
    vertex 62.59369418780703 71.4536172557324 -2.5046333740767125e-29
  endloop
endfacet
facet normal 0.8433914458128849 0.5372996083468251 5.458473797808009e-32
  outer loop
    vertex 62.59369418780703 71.4536172557324 12.7
    vertex 60.812349720052595 74.24976797464456 -2.5046333740767125e-29
    vertex 60.812349720052595 74.24976797464456 12.7
  endloop
endfacet
facet normal 0.953716950748227 0.30070579950427295 1.2950362008272023e-31
  outer loop
    vertex 62.59369418780703 71.4536172557324 -2.5046333740767125e-29
    vertex 63.59064375569662 68.29169718799552 12.7
    vertex 63.59064375569662 68.29169718799552 -2.5046333740767125e-29
  endloop
endfacet
facet normal 0.953716950748227 0.30070579950427295 1.2950362008272023e-31
  outer loop
    vertex 63.59064375569662 68.29169718799552 12.7
    vertex 62.59369418780703 71.4536172557324 -2.5046333740767125e-29
    vertex 62.59369418780703 71.4536172557324 12.7
  endloop
endfacet
facet normal 0.9990482215818578 0.04361938736533823 1.9559704449357315e-31
  outer loop
    vertex 63.59064375569662 68.29169718799552 -2.5046333740767125e-29
    vertex 63.73525795820675 64.97948739873024 12.7
    vertex 63.73525795820675 64.97948739873024 -2.5046333740767125e-29
  endloop
endfacet
facet normal 0.9990482215818578 0.04361938736533823 1.9559704449357315e-31
  outer loop
    vertex 63.73525795820675 64.97948739873024 12.7
    vertex 63.59064375569662 68.29169718799552 -2.5046333740767125e-29
    vertex 63.59064375569662 68.29169718799552 12.7
  endloop
endfacet
facet normal 0.9762960071199333 -0.21643961393810382 2.483608535615895e-31
  outer loop
    vertex 63.73525795820675 64.97948739873024 -2.5046333740767125e-29
    vertex 63.01768157642262 61.74270951138951 12.7
    vertex 63.01768157642262 61.74270951138951 -2.5046333740767125e-29
  endloop
endfacet
facet normal 0.9762960071199333 -0.21643961393810382 2.483608535615895e-31
  outer loop
    vertex 63.01768157642262 61.74270951138951 12.7
    vertex 63.73525795820675 64.97948739873024 -2.5046333740767125e-29
    vertex 63.73525795820675 64.97948739873024 12.7
  endloop
endfacet
facet normal -0.13052619222005163 -0.9914448613738105 0.0
  outer loop
    vertex 15.87363272865465 1.4099832412739487e-15 12.7
    vertex 13.533393469905569 0.3080983433663939 2.255973186038318e-14
    vertex 15.87363272865465 1.4099832412739487e-15 2.255973186038318e-14
  endloop
endfacet
facet normal -0.13052619222005163 -0.9914448613738105 0.0
  outer loop
    vertex 13.533393469905569 0.3080983433663939 2.255973186038318e-14
    vertex 15.87363272865465 1.4099832412739487e-15 12.7
    vertex 13.533393469905569 0.3080983433663939 12.7
  endloop
endfacet
facet normal -0.3826834323650895 -0.9238795325112868 -0.0
  outer loop
    vertex 13.533393469905569 0.3080983433663939 12.7
    vertex 11.352637649212006 1.211396980521736 2.255973186038318e-14
    vertex 13.533393469905569 0.3080983433663939 2.255973186038318e-14
  endloop
endfacet
facet normal -0.3826834323650895 -0.9238795325112868 -0.0
  outer loop
    vertex 11.352637649212006 1.211396980521736 2.255973186038318e-14
    vertex 13.533393469905569 0.3080983433663939 12.7
    vertex 11.352637649212006 1.211396980521736 12.7
  endloop
endfacet
facet normal -0.6087614290087207 -0.7933533402912353 -0.0
  outer loop
    vertex 11.352637649212006 1.211396980521736 12.7
    vertex 9.479980171884836 2.648337602115472 2.255973186038318e-14
    vertex 11.352637649212006 1.211396980521736 2.255973186038318e-14
  endloop
endfacet
facet normal -0.6087614290087207 -0.7933533402912353 -0.0
  outer loop
    vertex 9.479980171884836 2.648337602115472 2.255973186038318e-14
    vertex 11.352637649212006 1.211396980521736 12.7
    vertex 9.479980171884836 2.648337602115472 12.7
  endloop
endfacet
facet normal -0.7933533402912355 -0.6087614290087203 -0.0
  outer loop
    vertex 8.0430395502911 4.520995079442645 12.7
    vertex 9.479980171884836 2.648337602115472 2.255973186038318e-14
    vertex 9.479980171884836 2.648337602115472 12.7
  endloop
endfacet
facet normal -0.7933533402912355 -0.6087614290087203 -0.0
  outer loop
    vertex 9.479980171884836 2.648337602115472 2.255973186038318e-14
    vertex 8.0430395502911 4.520995079442645 12.7
    vertex 8.0430395502911 4.520995079442645 2.255973186038318e-14
  endloop
endfacet
facet normal -0.9238795325112868 -0.38268343236508984 -0.0
  outer loop
    vertex 7.139740913135756 6.701750900136208 12.7
    vertex 8.0430395502911 4.520995079442645 2.255973186038318e-14
    vertex 8.0430395502911 4.520995079442645 12.7
  endloop
endfacet
facet normal -0.9238795325112868 -0.38268343236508984 -0.0
  outer loop
    vertex 8.0430395502911 4.520995079442645 2.255973186038318e-14
    vertex 7.139740913135756 6.701750900136208 12.7
    vertex 7.139740913135756 6.701750900136208 2.255973186038318e-14
  endloop
endfacet
facet normal -0.9914448613738106 -0.1305261922200512 -0.0
  outer loop
    vertex 6.8316425697693655 9.041990158885286 12.7
    vertex 7.139740913135756 6.701750900136208 2.255973186038318e-14
    vertex 7.139740913135756 6.701750900136208 12.7
  endloop
endfacet
facet normal -0.9914448613738106 -0.1305261922200512 -0.0
  outer loop
    vertex 7.139740913135756 6.701750900136208 2.255973186038318e-14
    vertex 6.8316425697693655 9.041990158885286 12.7
    vertex 6.8316425697693655 9.041990158885286 2.255973186038318e-14
  endloop
endfacet
facet normal -0.9914448613738104 0.13052619222005177 -0.0
  outer loop
    vertex 7.139740913135758 11.382229417634363 12.7
    vertex 6.8316425697693655 9.041990158885286 2.255973186038318e-14
    vertex 6.8316425697693655 9.041990158885286 12.7
  endloop
endfacet
facet normal -0.9914448613738104 0.13052619222005177 -0.0
  outer loop
    vertex 6.8316425697693655 9.041990158885286 2.255973186038318e-14
    vertex 7.139740913135758 11.382229417634363 12.7
    vertex 7.139740913135758 11.382229417634363 2.255973186038318e-14
  endloop
endfacet
facet normal -0.9238795325112867 0.38268343236509034 -0.0
  outer loop
    vertex 8.043039550291102 13.562985238327924 12.7
    vertex 7.139740913135758 11.382229417634363 2.255973186038318e-14
    vertex 7.139740913135758 11.382229417634363 12.7
  endloop
endfacet
facet normal -0.9238795325112867 0.38268343236509034 -0.0
  outer loop
    vertex 7.139740913135758 11.382229417634363 2.255973186038318e-14
    vertex 8.043039550291102 13.562985238327924 12.7
    vertex 8.043039550291102 13.562985238327924 2.255973186038318e-14
  endloop
endfacet
facet normal -0.7933533402912352 0.6087614290087209 -0.0
  outer loop
    vertex 9.479980171884836 15.435642715655092 12.7
    vertex 8.043039550291102 13.562985238327924 2.255973186038318e-14
    vertex 8.043039550291102 13.562985238327924 12.7
  endloop
endfacet
facet normal -0.7933533402912352 0.6087614290087209 -0.0
  outer loop
    vertex 8.043039550291102 13.562985238327924 2.255973186038318e-14
    vertex 9.479980171884836 15.435642715655092 12.7
    vertex 9.479980171884836 15.435642715655092 2.255973186038318e-14
  endloop
endfacet
facet normal -0.6087614290087209 0.7933533402912349 -0.0
  outer loop
    vertex 9.479980171884836 15.435642715655092 12.7
    vertex 11.352637649212006 16.87258333724883 2.255973186038318e-14
    vertex 9.479980171884836 15.435642715655092 2.255973186038318e-14
  endloop
endfacet
facet normal -0.6087614290087209 0.7933533402912349 -0.0
  outer loop
    vertex 11.352637649212006 16.87258333724883 2.255973186038318e-14
    vertex 9.479980171884836 15.435642715655092 12.7
    vertex 11.352637649212006 16.87258333724883 12.7
  endloop
endfacet
facet normal -0.38268343236509 0.9238795325112867 -0.0
  outer loop
    vertex 11.352637649212006 16.87258333724883 12.7
    vertex 13.533393469905569 17.77588197440417 2.255973186038318e-14
    vertex 11.352637649212006 16.87258333724883 2.255973186038318e-14
  endloop
endfacet
facet normal -0.38268343236509 0.9238795325112867 -0.0
  outer loop
    vertex 13.533393469905569 17.77588197440417 2.255973186038318e-14
    vertex 11.352637649212006 16.87258333724883 12.7
    vertex 13.533393469905569 17.77588197440417 12.7
  endloop
endfacet
facet normal -0.13052619222005177 0.9914448613738105 -0.0
  outer loop
    vertex 13.533393469905569 17.77588197440417 12.7
    vertex 15.873632728654647 18.083980317770564 2.255973186038318e-14
    vertex 13.533393469905569 17.77588197440417 2.255973186038318e-14
  endloop
endfacet
facet normal -0.13052619222005177 0.9914448613738105 -0.0
  outer loop
    vertex 15.873632728654647 18.083980317770564 2.255973186038318e-14
    vertex 13.533393469905569 17.77588197440417 12.7
    vertex 15.873632728654647 18.083980317770564 12.7
  endloop
endfacet
facet normal -0.0 -0.0 1.0
  outer loop
    vertex 93.14539896866668 12.663125086298445 12.7
    vertex 92.86530619126171 12.7 12.7
    vertex 92.58846477661464 12.663553136326087 12.7
  endloop
endfacet
facet normal 0.13052619222005174 0.9914448613738105 -1.3007496993134315e-33
  outer loop
    vertex 93.14539896866668 12.663125086298445 12.7
    vertex 96.15230806406372 12.267257993871167 2.8199664825478975e-15
    vertex 93.14539896866668 12.663125086298445 2.8199664825478975e-15
  endloop
endfacet
facet normal 0.13052619222005174 0.9914448613738105 -1.3007496993134315e-33
  outer loop
    vertex 96.15230806406372 12.267257993871167 2.8199664825478975e-15
    vertex 93.14539896866668 12.663125086298445 12.7
    vertex 96.15230806406372 12.267257993871167 12.7
  endloop
endfacet
facet normal 0.3826834323650897 0.923879532511287 0.0
  outer loop
    vertex 96.15230806406372 12.267257993871167 12.7
    vertex 99.2153061912617 10.998522628062371 2.8199664825478975e-15
    vertex 96.15230806406372 12.267257993871167 2.8199664825478975e-15
  endloop
endfacet
facet normal 0.3826834323650897 0.923879532511287 0.0
  outer loop
    vertex 99.2153061912617 10.998522628062371 2.8199664825478975e-15
    vertex 96.15230806406372 12.267257993871167 12.7
    vertex 99.2153061912617 10.998522628062371 12.7
  endloop
endfacet
facet normal 0.60876142900872 0.7933533402912357 0.0
  outer loop
    vertex 99.2153061912617 10.998522628062371 12.7
    vertex 101.84556231233087 8.980256121069154 2.8199664825478975e-15
    vertex 99.2153061912617 10.998522628062371 2.8199664825478975e-15
  endloop
endfacet
facet normal 0.60876142900872 0.7933533402912357 0.0
  outer loop
    vertex 101.84556231233087 8.980256121069154 2.8199664825478975e-15
    vertex 99.2153061912617 10.998522628062371 12.7
    vertex 101.84556231233087 8.980256121069154 12.7
  endloop
endfacet
facet normal 0.7933533402912347 0.6087614290087213 0.0
  outer loop
    vertex 101.84556231233087 8.980256121069154 2.8199664825478975e-15
    vertex 103.86382881932408 6.350000000000001 12.7
    vertex 103.86382881932408 6.350000000000001 2.8199664825478975e-15
  endloop
endfacet
facet normal 0.7933533402912347 0.6087614290087213 0.0
  outer loop
    vertex 103.86382881932408 6.350000000000001 12.7
    vertex 101.84556231233087 8.980256121069154 2.8199664825478975e-15
    vertex 101.84556231233087 8.980256121069154 12.7
  endloop
endfacet
facet normal 0.9238795325112883 0.38268343236508623 0.0
  outer loop
    vertex 103.86382881932408 6.350000000000001 2.8199664825478975e-15
    vertex 105.13256418513286 3.287001872802017 12.7
    vertex 105.13256418513286 3.287001872802017 2.8199664825478975e-15
  endloop
endfacet
facet normal 0.9238795325112883 0.38268343236508623 0.0
  outer loop
    vertex 105.13256418513286 3.287001872802017 12.7
    vertex 103.86382881932408 6.350000000000001 2.8199664825478975e-15
    vertex 103.86382881932408 6.350000000000001 12.7
  endloop
endfacet
facet normal 0.9914448613738103 0.13052619222005352 3.9105604541003244e-31
  outer loop
    vertex 105.13256418513286 3.287001872802017 2.8199664825478975e-15
    vertex 105.56530619126171 1.2924690507449743e-15 12.7
    vertex 105.56530619126171 1.2924690507449743e-15 2.8199664825478975e-15
  endloop
endfacet
facet normal 0.9914448613738103 0.13052619222005352 3.9105604541003244e-31
  outer loop
    vertex 105.56530619126171 1.2924690507449743e-15 12.7
    vertex 105.13256418513286 3.287001872802017 2.8199664825478975e-15
    vertex 105.13256418513286 3.287001872802017 12.7
  endloop
endfacet
facet normal -6.222636018034707e-18 -1.0 -8.000933336099045e-17
  outer loop
    vertex 105.56530619126171 1.2924690507449743e-15 12.7
    vertex 15.87363272865465 1.4099832412739487e-15 2.255973186038318e-14
    vertex 105.56530619126171 1.2924690507449743e-15 2.8199664825478975e-15
  endloop
endfacet
facet normal -6.222636018034707e-18 -1.0 -8.000933336099045e-17
  outer loop
    vertex 15.87363272865465 1.4099832412739487e-15 2.255973186038318e-14
    vertex 105.56530619126171 1.2924690507449743e-15 12.7
    vertex 15.87363272865465 1.4099832412739487e-15 12.7
  endloop
endfacet
facet normal -0.0 -0.0 1.0
  outer loop
    vertex 7.139740913135756 6.701750900136208 12.7
    vertex 7.139740913135758 11.382229417634363 12.7
    vertex 6.8316425697693655 9.041990158885286 12.7
  endloop
endfacet
facet normal -0.0 -0.0 1.0
  outer loop
    vertex 7.139740913135758 11.382229417634363 12.7
    vertex 7.139740913135756 6.701750900136208 12.7
    vertex 8.0430395502911 4.520995079442645 12.7
  endloop
endfacet
facet normal -0.0 -0.0 1.0
  outer loop
    vertex 7.139740913135758 11.382229417634363 12.7
    vertex 8.0430395502911 4.520995079442645 12.7
    vertex 8.043039550291102 13.562985238327924 12.7
  endloop
endfacet
facet normal -0.0 -0.0 1.0
  outer loop
    vertex 8.043039550291102 13.562985238327924 12.7
    vertex 8.0430395502911 4.520995079442645 12.7
    vertex 9.479980171884836 2.648337602115472 12.7
  endloop
endfacet
facet normal -0.0 -0.0 1.0
  outer loop
    vertex 8.043039550291102 13.562985238327924 12.7
    vertex 9.479980171884836 2.648337602115472 12.7
    vertex 9.479980171884836 15.435642715655092 12.7
  endloop
endfacet
facet normal -0.0 -0.0 1.0
  outer loop
    vertex 9.479980171884836 15.435642715655092 12.7
    vertex 9.479980171884836 2.648337602115472 12.7
    vertex 11.352637649212006 1.211396980521736 12.7
  endloop
endfacet
facet normal -0.0 -0.0 1.0
  outer loop
    vertex 9.479980171884836 15.435642715655092 12.7
    vertex 11.352637649212006 1.211396980521736 12.7
    vertex 11.352637649212006 16.87258333724883 12.7
  endloop
endfacet
facet normal -0.0 -0.0 1.0
  outer loop
    vertex 11.352637649212006 16.87258333724883 12.7
    vertex 11.352637649212006 1.211396980521736 12.7
    vertex 13.533393469905569 0.3080983433663939 12.7
  endloop
endfacet
facet normal -0.0 -0.0 1.0
  outer loop
    vertex 11.352637649212006 16.87258333724883 12.7
    vertex 13.533393469905569 0.3080983433663939 12.7
    vertex 13.533393469905569 17.77588197440417 12.7
  endloop
endfacet
facet normal -0.0 -0.0 1.0
  outer loop
    vertex 13.533393469905569 17.77588197440417 12.7
    vertex 13.533393469905569 0.3080983433663939 12.7
    vertex 15.87363272865465 1.4099832412739487e-15 12.7
  endloop
endfacet
facet normal -0.0 -0.0 1.0
  outer loop
    vertex 13.533393469905569 17.77588197440417 12.7
    vertex 15.87363272865465 1.4099832412739487e-15 12.7
    vertex 14.447685836285476 11.845453687015253 12.7
  endloop
endfacet
facet normal -0.0 -0.0 1.0
  outer loop
    vertex 14.447685836285476 11.845453687015253 12.7
    vertex 15.87363272865465 1.4099832412739487e-15 12.7
    vertex 29.3653061912617 6.4158839117202575 12.7
  endloop
endfacet
facet normal -0.0 -0.0 1.0
  outer loop
    vertex 29.3653061912617 6.4158839117202575 12.7
    vertex 15.87363272865465 1.4099832412739487e-15 12.7
    vertex 105.56530619126171 1.2924690507449743e-15 12.7
  endloop
endfacet
facet normal -0.0 -0.0 1.0
  outer loop
    vertex 29.3653061912617 6.4158839117202575 12.7
    vertex 105.56530619126171 1.2924690507449743e-15 12.7
    vertex 56.50007057626128 12.905883580421508 12.7
  endloop
endfacet
facet normal -0.0 -0.0 1.0
  outer loop
    vertex 29.3653061912617 6.4158839117202575 12.7
    vertex 56.50007057626128 12.905883580421508 12.7
    vertex 55.178539804689144 13.318402774708673 12.7
  endloop
endfacet
facet normal -0.0 -0.0 1.0
  outer loop
    vertex 29.3653061912617 6.4158839117202575 12.7
    vertex 55.178539804689144 13.318402774708673 12.7
    vertex 53.93118266054131 13.91899899581794 12.7
  endloop
endfacet
facet normal -0.0 -0.0 1.0
  outer loop
    vertex 29.3653061912617 6.4158839117202575 12.7
    vertex 53.93118266054131 13.91899899581794 12.7
    vertex 52.784600900111656 14.69486363125213 12.7
  endloop
endfacet
facet normal -0.0 -0.0 1.0
  outer loop
    vertex 29.3653061912617 6.4158839117202575 12.7
    vertex 52.784600900111656 14.69486363125213 12.7
    vertex 51.76324709394509 15.629450207496655 12.7
  endloop
endfacet
facet normal -0.0 -0.0 1.0
  outer loop
    vertex 29.3653061912617 6.4158839117202575 12.7
    vertex 51.76324709394509 15.629450207496655 12.7
    vertex 50.88890313920632 16.702827268309466 12.7
  endloop
endfacet
facet normal -0.0 -0.0 1.0
  outer loop
    vertex 29.3653061912617 6.4158839117202575 12.7
    vertex 50.88890313920632 16.702827268309466 12.7
    vertex 50.180215728151936 17.89210344282925 12.7
  endloop
endfacet
facet normal -0.0 -0.0 1.0
  outer loop
    vertex 29.3653061912617 6.4158839117202575 12.7
    vertex 50.180215728151936 17.89210344282925 12.7
    vertex 49.65229867953534 19.17191563828893 12.7
  endloop
endfacet
facet normal -0.0 -0.0 1.0
  outer loop
    vertex 29.3653061912617 6.4158839117202575 12.7
    vertex 49.65229867953534 19.17191563828893 12.7
    vertex 49.31641061382187 20.514969945894787 12.7
  endloop
endfacet
facet normal -0.0 -0.0 1.0
  outer loop
    vertex 29.3653061912617 6.4158839117202575 12.7
    vertex 49.31641061382187 20.514969945894787 12.7
    vertex 49.17971484627217 21.89262372424455 12.7
  endloop
endfacet
facet normal -0.0 -0.0 1.0
  outer loop
    vertex 56.50007057626128 12.905883580421508 12.7
    vertex 105.56530619126171 1.2924690507449743e-15 12.7
    vertex 57.86759135544589 12.690239001621768 12.7
  endloop
endfacet
facet normal -0.0 -0.0 1.0
  outer loop
    vertex 57.86759135544589 12.690239001621768 12.7
    vertex 105.56530619126171 1.2924690507449743e-15 12.7
    vertex 92.58846477661464 12.663553136326087 12.7
  endloop
endfacet
facet normal -0.0 -0.0 1.0
  outer loop
    vertex 92.58846477661464 12.663553136326087 12.7
    vertex 105.56530619126171 1.2924690507449743e-15 12.7
    vertex 93.14539896866668 12.663125086298445 12.7
  endloop
endfacet
facet normal -0.0 -0.0 1.0
  outer loop
    vertex 93.14539896866668 12.663125086298445 12.7
    vertex 105.56530619126171 1.2924690507449743e-15 12.7
    vertex 96.15230806406372 12.267257993871167 12.7
  endloop
endfacet
facet normal -0.0 -0.0 1.0
  outer loop
    vertex 96.15230806406372 12.267257993871167 12.7
    vertex 105.56530619126171 1.2924690507449743e-15 12.7
    vertex 99.2153061912617 10.998522628062371 12.7
  endloop
endfacet
facet normal -0.0 -0.0 1.0
  outer loop
    vertex 99.2153061912617 10.998522628062371 12.7
    vertex 105.56530619126171 1.2924690507449743e-15 12.7
    vertex 101.84556231233087 8.980256121069154 12.7
  endloop
endfacet
facet normal -0.0 -0.0 1.0
  outer loop
    vertex 101.84556231233087 8.980256121069154 12.7
    vertex 105.56530619126171 1.2924690507449743e-15 12.7
    vertex 103.86382881932408 6.350000000000001 12.7
  endloop
endfacet
facet normal -0.0 -0.0 1.0
  outer loop
    vertex 103.86382881932408 6.350000000000001 12.7
    vertex 105.56530619126171 1.2924690507449743e-15 12.7
    vertex 105.13256418513286 3.287001872802017 12.7
  endloop
endfacet
facet normal -0.0 -0.0 1.0
  outer loop
    vertex 29.3653061912617 6.4158839117202575 12.7
    vertex 49.24512661853279 23.275496446485146 12.7
    vertex 55.427241112677564 78.02046161560655 12.7
  endloop
endfacet
facet normal -0.0 -0.0 1.0
  outer loop
    vertex 49.24512661853279 23.275496446485146 12.7
    vertex 29.3653061912617 6.4158839117202575 12.7
    vertex 49.17971484627217 21.89262372424455 12.7
  endloop
endfacet
facet normal -0.0 -0.0 1.0
  outer loop
    vertex 55.427241112677564 78.02046161560655 12.7
    vertex 49.24512661853279 23.275496446485146 12.7
    vertex 49.511250926748914 24.634096283981037 12.7
  endloop
endfacet
facet normal -0.0 -0.0 1.0
  outer loop
    vertex 55.427241112677564 78.02046161560655 12.7
    vertex 49.511250926748914 24.634096283981037 12.7
    vertex 63.01768157642262 61.74270951138951 12.7
  endloop
endfacet
facet normal -0.0 -0.0 1.0
  outer loop
    vertex 55.427241112677564 78.02046161560655 12.7
    vertex 63.01768157642262 61.74270951138951 12.7
    vertex 58.368006034099864 76.4895962940957 12.7
  endloop
endfacet
facet normal -0.0 -0.0 1.0
  outer loop
    vertex 58.368006034099864 76.4895962940957 12.7
    vertex 63.01768157642262 61.74270951138951 12.7
    vertex 60.812349720052595 74.24976797464456 12.7
  endloop
endfacet
facet normal -0.0 -0.0 1.0
  outer loop
    vertex 60.812349720052595 74.24976797464456 12.7
    vertex 63.01768157642262 61.74270951138951 12.7
    vertex 62.59369418780703 71.4536172557324 12.7
  endloop
endfacet
facet normal -0.0 -0.0 1.0
  outer loop
    vertex 62.59369418780703 71.4536172557324 12.7
    vertex 63.01768157642262 61.74270951138951 12.7
    vertex 63.59064375569662 68.29169718799552 12.7
  endloop
endfacet
facet normal -0.0 -0.0 1.0
  outer loop
    vertex 63.59064375569662 68.29169718799552 12.7
    vertex 63.01768157642262 61.74270951138951 12.7
    vertex 63.73525795820675 64.97948739873024 12.7
  endloop
endfacet
facet normal -0.0 -0.0 1.0
  outer loop
    vertex 15.873632728654647 18.083980317770564 12.7
    vertex 13.533393469905569 17.77588197440417 12.7
    vertex 14.447685836285476 11.845453687015253 12.7
  endloop
endfacet
endsolid tablet stand 3
