solid OpenSCAD_Model
  facet normal 0.733 -0.532555 -0.423198
    outer loop
      vertex 10.509 -32.4511 -4
      vertex 10.3545 -31.9755 -4.86602
      vertex 10.7 -31.5 -4.86602
    endloop
  endfacet
  facet normal -1 0 0
    outer loop
      vertex -11.009 -32.0878 -4
      vertex -11.009 32.0878 4
      vertex -11.009 32.0878 -4
    endloop
  endfacet
  facet normal -1 -0 0
    outer loop
      vertex -11.009 32.0878 4
      vertex -11.009 -32.0878 -4
      vertex -11.009 -32.0878 4
    endloop
  endfacet
  facet normal 0.733 -0.532555 -0.423198
    outer loop
      vertex 11.2 -31.5 -4
      vertex 10.509 -32.4511 -4
      vertex 10.7 -31.5 -4.86602
    endloop
  endfacet
  facet normal 0.809017 -0.587785 0
    outer loop
      vertex 10.509 -32.4511 4
      vertex 11.2 -31.5 -4
      vertex 11.2 -31.5 4
    endloop
  endfacet
  facet normal 0.809017 -0.587785 0
    outer loop
      vertex 11.2 -31.5 -4
      vertex 10.509 -32.4511 4
      vertex 10.509 -32.4511 -4
    endloop
  endfacet
  facet normal 0.733 0.532555 -0.423198
    outer loop
      vertex 10.7 31.5 -4.86602
      vertex 10.509 32.4511 -4
      vertex 11.2 31.5 -4
    endloop
  endfacet
  facet normal 0 -1 0
    outer loop
      vertex -9.89098 -32.4511 -4
      vertex 10.509 -32.4511 4
      vertex -9.89098 -32.4511 4
    endloop
  endfacet
  facet normal 0 -1 -0
    outer loop
      vertex 10.509 -32.4511 4
      vertex -9.89098 -32.4511 -4
      vertex 10.509 -32.4511 -4
    endloop
  endfacet
  facet normal -0.279983 -0.861692 -0.423198
    outer loop
      vertex -10.6045 -31.7939 -4.86602
      vertex -9.89098 -32.4511 -4
      vertex -11.009 -32.0878 -4
    endloop
  endfacet
  facet normal -0.279983 -0.861692 -0.423198
    outer loop
      vertex -9.89098 -32.4511 -4
      vertex -10.6045 -31.7939 -4.86602
      vertex -10.0455 -31.9755 -4.86602
    endloop
  endfacet
  facet normal -0.906037 0 -0.423198
    outer loop
      vertex -10.6045 -31.7939 -4.86602
      vertex -11.009 32.0878 -4
      vertex -10.6045 31.7939 -4.86602
    endloop
  endfacet
  facet normal -0.906037 -0 -0.423198
    outer loop
      vertex -11.009 32.0878 -4
      vertex -10.6045 -31.7939 -4.86602
      vertex -11.009 -32.0878 -4
    endloop
  endfacet
  facet normal -0 -0.876551 -0.481309
    outer loop
      vertex 10.3545 -31.9755 -4.86602
      vertex -9.89098 -32.4511 -4
      vertex -10.0455 -31.9755 -4.86602
    endloop
  endfacet
  facet normal 0 -0.876551 -0.481309
    outer loop
      vertex -9.89098 -32.4511 -4
      vertex 10.3545 -31.9755 -4.86602
      vertex 10.509 -32.4511 -4
    endloop
  endfacet
  facet normal 0.866025 0 -0.5
    outer loop
      vertex 11.2 -31.5 -4
      vertex 10.7 31.5 -4.86602
      vertex 11.2 31.5 -4
    endloop
  endfacet
  facet normal 0.866025 0 -0.5
    outer loop
      vertex 10.7 31.5 -4.86602
      vertex 11.2 -31.5 -4
      vertex 10.7 -31.5 -4.86602
    endloop
  endfacet
  facet normal 1 -0 0
    outer loop
      vertex 11.2 -31.5 4
      vertex 11.2 31.5 -4
      vertex 11.2 31.5 4
    endloop
  endfacet
  facet normal 1 0 0
    outer loop
      vertex 11.2 31.5 -4
      vertex 11.2 -31.5 4
      vertex 11.2 -31.5 -4
    endloop
  endfacet
  facet normal -0.309019 -0.951056 0
    outer loop
      vertex -11.009 -32.0878 -4
      vertex -9.89098 -32.4511 4
      vertex -11.009 -32.0878 4
    endloop
  endfacet
  facet normal -0.309019 -0.951056 -0
    outer loop
      vertex -9.89098 -32.4511 4
      vertex -11.009 -32.0878 -4
      vertex -9.89098 -32.4511 -4
    endloop
  endfacet
  facet normal 0 1 0
    outer loop
      vertex 10.509 32.4511 4
      vertex 6.8 32.4511 -2.5
      vertex 6.8 32.4511 4
    endloop
  endfacet
  facet normal 0 1 0
    outer loop
      vertex -9.89098 32.4511 -4
      vertex 6.8 32.4511 -2.5
      vertex 10.509 32.4511 -4
    endloop
  endfacet
  facet normal 0 1 -0
    outer loop
      vertex 10.509 32.4511 -4
      vertex 6.8 32.4511 -2.5
      vertex 10.509 32.4511 4
    endloop
  endfacet
  facet normal 0 1 -0
    outer loop
      vertex -6.8 32.4511 -2.5
      vertex -9.89098 32.4511 4
      vertex -6.8 32.4511 4
    endloop
  endfacet
  facet normal 0 1 0
    outer loop
      vertex -6.8 32.4511 -2.5
      vertex -9.89098 32.4511 -4
      vertex -9.89098 32.4511 4
    endloop
  endfacet
  facet normal 0 1 0
    outer loop
      vertex 6.8 32.4511 -2.5
      vertex -9.89098 32.4511 -4
      vertex -6.8 32.4511 -2.5
    endloop
  endfacet
  facet normal 0 0 -1
    outer loop
      vertex -10.0455 -31.9755 -4.86602
      vertex 10.7 -31.5 -4.86602
      vertex 10.3545 -31.9755 -4.86602
    endloop
  endfacet
  facet normal 0 0 -1
    outer loop
      vertex -10.6045 -31.7939 -4.86602
      vertex 10.7 -31.5 -4.86602
      vertex -10.0455 -31.9755 -4.86602
    endloop
  endfacet
  facet normal -0 0 -1
    outer loop
      vertex 10.7 -31.5 -4.86602
      vertex -10.6045 -31.7939 -4.86602
      vertex 10.7 31.5 -4.86602
    endloop
  endfacet
  facet normal 0 0 -1
    outer loop
      vertex 10.7 31.5 -4.86602
      vertex -10.0455 31.9755 -4.86602
      vertex 10.3545 31.9755 -4.86602
    endloop
  endfacet
  facet normal 0 0 -1
    outer loop
      vertex -10.6045 31.7939 -4.86602
      vertex 10.7 31.5 -4.86602
      vertex -10.6045 -31.7939 -4.86602
    endloop
  endfacet
  facet normal 0 0 -1
    outer loop
      vertex 10.7 31.5 -4.86602
      vertex -10.6045 31.7939 -4.86602
      vertex -10.0455 31.9755 -4.86602
    endloop
  endfacet
  facet normal 0.809017 0.587785 0
    outer loop
      vertex 11.2 31.5 4
      vertex 10.509 32.4511 -4
      vertex 10.509 32.4511 4
    endloop
  endfacet
  facet normal 0.809017 0.587785 0
    outer loop
      vertex 10.509 32.4511 -4
      vertex 11.2 31.5 4
      vertex 11.2 31.5 -4
    endloop
  endfacet
  facet normal 0.733 0.532555 -0.423198
    outer loop
      vertex 10.7 31.5 -4.86602
      vertex 10.3545 31.9755 -4.86602
      vertex 10.509 32.4511 -4
    endloop
  endfacet
  facet normal -0.279983 0.861692 -0.423198
    outer loop
      vertex -10.6045 31.7939 -4.86602
      vertex -9.89098 32.4511 -4
      vertex -10.0455 31.9755 -4.86602
    endloop
  endfacet
  facet normal -0.279983 0.861692 -0.423198
    outer loop
      vertex -9.89098 32.4511 -4
      vertex -10.6045 31.7939 -4.86602
      vertex -11.009 32.0878 -4
    endloop
  endfacet
  facet normal -0.309019 0.951056 0
    outer loop
      vertex -9.89098 32.4511 -4
      vertex -11.009 32.0878 4
      vertex -9.89098 32.4511 4
    endloop
  endfacet
  facet normal -0.309019 0.951056 0
    outer loop
      vertex -11.009 32.0878 4
      vertex -9.89098 32.4511 -4
      vertex -11.009 32.0878 -4
    endloop
  endfacet
  facet normal 0 0.876551 -0.481309
    outer loop
      vertex 10.3545 31.9755 -4.86602
      vertex -9.89098 32.4511 -4
      vertex 10.509 32.4511 -4
    endloop
  endfacet
  facet normal 0 0.876551 -0.481309
    outer loop
      vertex -9.89098 32.4511 -4
      vertex 10.3545 31.9755 -4.86602
      vertex -10.0455 31.9755 -4.86602
    endloop
  endfacet
  facet normal 0 0 1
    outer loop
      vertex -6.8 32.4511 4
      vertex -9.2 26 4
      vertex -6.8 26 4
    endloop
  endfacet
  facet normal -0 0 1
    outer loop
      vertex -11.009 32.0878 4
      vertex -9.2 26 4
      vertex -9.89098 32.4511 4
    endloop
  endfacet
  facet normal -0 0 1
    outer loop
      vertex -9.89098 32.4511 4
      vertex -9.2 26 4
      vertex -6.8 32.4511 4
    endloop
  endfacet
  facet normal -0 0 1
    outer loop
      vertex 6.8 32.4511 4
      vertex 11.2 31.5 4
      vertex 10.509 32.4511 4
    endloop
  endfacet
  facet normal 0 0 1
    outer loop
      vertex 11.2 31.5 4
      vertex 9.2 26 4
      vertex 11.2 -31.5 4
    endloop
  endfacet
  facet normal -0 0 1
    outer loop
      vertex 9.2 -30 4
      vertex 11.2 -31.5 4
      vertex 9.2 26 4
    endloop
  endfacet
  facet normal 0 0 1
    outer loop
      vertex 11.2 31.5 4
      vertex 6.8 32.4511 4
      vertex 9.2 26 4
    endloop
  endfacet
  facet normal 0 0 1
    outer loop
      vertex 9.2 26 4
      vertex 6.8 32.4511 4
      vertex 6.8 26 4
    endloop
  endfacet
  facet normal 0 0 1
    outer loop
      vertex 11.2 -31.5 4
      vertex 9.2 -30 4
      vertex 10.509 -32.4511 4
    endloop
  endfacet
  facet normal 0 0 1
    outer loop
      vertex -9.89098 -32.4511 4
      vertex 9.2 -30 4
      vertex -9.2 -30 4
    endloop
  endfacet
  facet normal 0 0 1
    outer loop
      vertex 9.2 -30 4
      vertex -9.89098 -32.4511 4
      vertex 10.509 -32.4511 4
    endloop
  endfacet
  facet normal 0 0 1
    outer loop
      vertex -11.009 -32.0878 4
      vertex -9.2 26 4
      vertex -11.009 32.0878 4
    endloop
  endfacet
  facet normal 0 0 1
    outer loop
      vertex -9.2 26 4
      vertex -11.009 -32.0878 4
      vertex -9.2 -30 4
    endloop
  endfacet
  facet normal 0 0 1
    outer loop
      vertex -9.2 -30 4
      vertex -11.009 -32.0878 4
      vertex -9.89098 -32.4511 4
    endloop
  endfacet
  facet normal 1 -0 0
    outer loop
      vertex -9.2 -30 4
      vertex -9.2 26 -3
      vertex -9.2 26 4
    endloop
  endfacet
  facet normal 1 0 0
    outer loop
      vertex -9.2 26 -3
      vertex -9.2 -30 4
      vertex -9.2 -30 -3
    endloop
  endfacet
  facet normal -1 0 0
    outer loop
      vertex 9.2 -30 -3
      vertex 9.2 26 4
      vertex 9.2 26 -3
    endloop
  endfacet
  facet normal -1 -0 0
    outer loop
      vertex 9.2 26 4
      vertex 9.2 -30 -3
      vertex 9.2 -30 4
    endloop
  endfacet
  facet normal -0 0 1
    outer loop
      vertex -9.2 26 -3
      vertex 9.2 -30 -3
      vertex 9.2 26 -3
    endloop
  endfacet
  facet normal 0 0 1
    outer loop
      vertex 9.2 -30 -3
      vertex -9.2 26 -3
      vertex -9.2 -30 -3
    endloop
  endfacet
  facet normal 0 1 -0
    outer loop
      vertex 9.2 -30 -3
      vertex -9.2 -30 4
      vertex 9.2 -30 4
    endloop
  endfacet
  facet normal 0 1 0
    outer loop
      vertex -9.2 -30 4
      vertex 9.2 -30 -3
      vertex -9.2 -30 -3
    endloop
  endfacet
  facet normal 0 -1 0
    outer loop
      vertex -9.2 26 4
      vertex -6.8 26 -2.5
      vertex -6.8 26 4
    endloop
  endfacet
  facet normal 0 -1 -0
    outer loop
      vertex -6.8 26 -2.5
      vertex -9.2 26 -3
      vertex 6.8 26 -2.5
    endloop
  endfacet
  facet normal 0 -1 0
    outer loop
      vertex -9.2 26 -3
      vertex -6.8 26 -2.5
      vertex -9.2 26 4
    endloop
  endfacet
  facet normal 0 -1 0
    outer loop
      vertex 6.8 26 -2.5
      vertex 9.2 26 4
      vertex 6.8 26 4
    endloop
  endfacet
  facet normal 0 -1 0
    outer loop
      vertex 6.8 26 -2.5
      vertex 9.2 26 -3
      vertex 9.2 26 4
    endloop
  endfacet
  facet normal 0 -1 0
    outer loop
      vertex 9.2 26 -3
      vertex 6.8 26 -2.5
      vertex -9.2 26 -3
    endloop
  endfacet
  facet normal 1 -0 0
    outer loop
      vertex -6.8 26 4
      vertex -6.8 32.4511 -2.5
      vertex -6.8 32.4511 4
    endloop
  endfacet
  facet normal 1 0 0
    outer loop
      vertex -6.8 32.4511 -2.5
      vertex -6.8 26 4
      vertex -6.8 26 -2.5
    endloop
  endfacet
  facet normal -1 0 0
    outer loop
      vertex 6.8 26 -2.5
      vertex 6.8 32.4511 4
      vertex 6.8 32.4511 -2.5
    endloop
  endfacet
  facet normal -1 -0 0
    outer loop
      vertex 6.8 32.4511 4
      vertex 6.8 26 -2.5
      vertex 6.8 26 4
    endloop
  endfacet
  facet normal -0 0 1
    outer loop
      vertex -6.8 32.4511 -2.5
      vertex 6.8 26 -2.5
      vertex 6.8 32.4511 -2.5
    endloop
  endfacet
  facet normal 0 0 1
    outer loop
      vertex 6.8 26 -2.5
      vertex -6.8 32.4511 -2.5
      vertex -6.8 26 -2.5
    endloop
  endfacet
endsolid OpenSCAD_Model
